<?xml version="1.0" standalone="no"?>
<!DOCTYPE svg PUBLIC "-//W3C//DTD SVG 20010904//EN"
 "http://www.w3.org/TR/2001/REC-SVG-20010904/DTD/svg10.dtd">
<svg version="1.0" xmlns="http://www.w3.org/2000/svg"
 width="1091.000000pt" height="867.000000pt" viewBox="0 0 1091.000000 867.000000"
 preserveAspectRatio="xMidYMid meet">

<g transform="translate(0.000000,867.000000) scale(0.100000,-0.100000)"
fill="#000000" stroke="none">
<path d="M10 4320 l0 -4320 5440 0 5440 0 0 4320 0 4320 -5440 0 -5440 0 0
-4320z m5467 3434 c8 -20 -13 -34 -52 -34 -35 0 -56 16 -48 36 8 21 92 19 100
-2z m-292 -19 c0 -17 -7 -20 -49 -20 -31 0 -51 5 -54 13 -5 16 35 32 73 29 23
-1 30 -7 30 -22z m583 2 c4 -22 -19 -31 -63 -23 -26 5 -35 12 -35 27 0 18 6
20 47 17 36 -2 49 -7 51 -21z m277 -20 c26 -20 10 -37 -34 -37 -39 0 -68 20
-56 40 9 14 68 12 90 -3z m-1147 -19 c3 -17 -14 -25 -68 -31 -19 -1 -26 3 -28
20 -4 24 14 32 63 30 19 -1 31 -8 33 -19z m1405 -29 c26 -7 37 -15 37 -29 0
-16 -7 -20 -33 -20 -41 0 -73 21 -64 44 7 19 10 19 60 5z m-1687 -20 c11 -19
-22 -42 -63 -43 -27 -1 -38 3 -38 14 0 29 85 54 101 29z m1289 -63 c692 -105
1255 -364 1765 -812 547 -481 917 -1126 1060 -1848 38 -190 51 -321 57 -566 7
-319 -14 -545 -77 -820 -259 -1125 -1076 -2033 -2170 -2411 -201 -70 -452
-127 -700 -161 -128 -17 -643 -17 -770 1 -565 77 -1028 250 -1473 548 -609
409 -1071 1015 -1302 1707 -116 351 -167 675 -167 1066 0 536 107 990 346
1475 156 314 341 575 591 834 367 379 808 661 1300 831 235 81 535 147 766
170 143 13 655 4 774 -14z m693 -7 c24 -9 30 -37 8 -45 -20 -8 -86 22 -86 39
0 29 13 30 78 6z m-2260 -22 c4 -19 -60 -52 -84 -43 -25 9 -15 37 19 51 40 18
61 15 65 -8z m2552 -107 c0 -25 -21 -30 -58 -14 -36 15 -52 42 -32 54 19 12
90 -20 90 -40z m-2822 -2 c4 -19 -44 -48 -78 -48 -34 0 -25 39 13 55 39 18 61
15 65 -7z m3051 -95 c38 -22 42 -53 7 -53 -30 0 -82 42 -72 58 10 17 29 15 65
-5z m-3311 -35 c4 -21 -58 -54 -82 -45 -25 10 -19 25 17 47 37 23 60 22 65 -2z
m3566 -119 c32 -25 34 -49 4 -49 -30 0 -84 43 -74 58 11 18 40 14 70 -9z
m-3817 -26 c7 -19 -41 -63 -69 -63 -28 0 -22 36 10 59 33 25 51 26 59 4z
m4043 -135 c34 -25 40 -58 11 -58 -23 0 -71 37 -71 55 0 11 9 19 28 24 2 1 16
-9 32 -21z m-4276 -34 c7 -18 -39 -64 -65 -64 -31 0 -31 19 0 50 33 33 56 38
65 14z m4508 -165 c29 -28 30 -32 15 -47 -15 -15 -19 -14 -47 13 -32 31 -40
65 -14 65 8 0 29 -14 46 -31z m-4732 -24 c11 -13 8 -21 -15 -45 -32 -33 -53
-38 -62 -14 -3 9 6 27 23 45 32 33 37 35 54 14z m4934 -176 c30 -35 32 -47 10
-56 -10 -4 -27 6 -47 25 -26 26 -28 33 -17 46 18 22 25 20 54 -15z m-5134 -38
c0 -29 -43 -76 -63 -68 -24 9 -21 28 8 60 30 32 55 35 55 8z m5324 -186 c30
-46 11 -82 -26 -49 -31 29 -41 53 -28 69 15 17 34 10 54 -20z m-5504 -41 c0
-22 -55 -78 -68 -70 -19 12 -14 41 12 69 25 27 56 28 56 1z m5669 -193 c28
-39 27 -63 0 -59 -28 4 -64 51 -56 72 10 25 34 19 56 -13z m-5841 -48 c2 -11
-8 -33 -21 -49 -21 -24 -27 -26 -41 -15 -12 10 -13 18 -5 35 29 55 61 69 67
29z m5986 -198 c16 -25 21 -57 10 -68 -11 -11 -35 5 -50 35 -27 53 8 82 40 33z
m-6128 -36 c10 -18 -27 -89 -47 -89 -29 0 -31 17 -9 60 20 39 42 51 56 29z
m6260 -235 c17 -40 13 -64 -11 -64 -18 0 -49 65 -41 86 10 26 37 14 52 -22z
m-6389 -61 c-4 -20 -13 -44 -22 -52 -13 -13 -17 -13 -29 -1 -21 22 7 90 36 90
18 0 20 -5 15 -37z m6494 -213 c9 -30 9 -44 1 -52 -17 -17 -37 -3 -50 38 -13
42 -9 54 18 54 14 0 23 -12 31 -40z m-6593 -46 c5 -34 -15 -74 -38 -74 -23 0
-26 21 -9 69 13 36 42 39 47 5z m6672 -229 c13 -41 8 -65 -15 -65 -17 0 -35
38 -35 76 0 39 36 32 50 -11z m-6749 -37 c5 -48 -10 -88 -31 -88 -16 0 -20 7
-20 31 0 17 5 39 10 50 12 21 39 26 41 7z m6797 -220 c7 -7 12 -29 12 -51 0
-34 -2 -38 -22 -35 -18 2 -24 11 -26 36 -5 56 10 76 36 50z m-6848 -97 c0 -39
-20 -68 -40 -56 -11 7 -14 78 -3 88 3 4 15 7 25 7 14 0 18 -8 18 -39z m6888
-234 c3 -46 2 -48 -20 -45 -18 2 -24 10 -26 36 -4 45 4 64 25 60 14 -2 19 -15
21 -51z m-6918 -61 c0 -48 -8 -60 -34 -50 -11 4 -16 19 -16 43 0 42 5 51 32
51 15 0 18 -8 18 -44z m6928 -215 c-3 -38 -6 -46 -23 -46 -16 0 -21 8 -23 38
-4 42 12 69 34 60 11 -4 14 -18 12 -52z m-6930 -85 c-2 -33 -7 -41 -23 -41
-16 0 -21 8 -23 44 -2 28 1 47 10 52 22 14 39 -12 36 -55z m6918 -210 c-8 -41
-21 -53 -42 -35 -16 13 -9 79 10 91 21 14 39 -18 32 -56z m-6908 -28 c15 -15
16 -84 2 -93 -19 -12 -40 17 -40 55 0 49 13 63 38 38z m6866 -247 c-1 -46 -19
-67 -42 -49 -8 7 -11 22 -6 42 14 68 50 73 48 7z m-6810 -80 c7 -33 6 -45 -5
-51 -19 -12 -37 6 -45 45 -13 70 35 76 50 6z m6752 -176 c10 -25 -16 -86 -34
-83 -21 4 -26 35 -13 71 11 29 38 36 47 12z m-6680 -112 c8 -41 -7 -63 -30
-44 -22 18 -32 81 -15 92 19 12 37 -7 45 -48z m6591 -205 c-17 -41 -28 -50
-46 -39 -16 11 -6 64 16 87 14 13 18 14 30 1 13 -12 12 -19 0 -49z m-6500 -62
c9 -28 10 -43 3 -50 -24 -24 -70 43 -56 80 10 27 38 11 53 -30z m6403 -171 c0
-30 -30 -75 -50 -75 -24 0 -26 20 -5 60 16 32 55 42 55 15z m-6294 -79 c18
-29 15 -71 -5 -71 -19 0 -55 61 -47 80 8 23 34 18 52 -9z m6164 -183 c0 -29
-44 -77 -63 -70 -22 8 -21 15 3 55 22 35 60 45 60 15z m-6031 -72 c27 -37 28
-71 3 -71 -23 0 -58 61 -49 84 9 24 23 20 46 -13z m5881 -173 c0 -20 -42 -78
-56 -78 -32 0 -26 46 11 84 16 16 45 12 45 -6z m-5721 -74 c27 -34 27 -64 2
-64 -22 0 -66 64 -56 80 11 17 33 11 54 -16z m5548 -160 c5 -15 -45 -74 -62
-74 -25 0 -24 30 2 60 25 30 53 36 60 14z m-5368 -70 c24 -31 28 -64 6 -64
-16 0 -65 49 -65 66 0 32 33 31 59 -2z m5178 -150 c5 -15 -45 -74 -63 -74 -28
0 -27 31 2 61 28 29 54 35 61 13z m-4973 -73 c20 -22 16 -51 -8 -51 -8 0 -26
14 -40 31 -21 24 -24 34 -15 45 13 16 34 7 63 -25z m4763 -128 c6 -16 -46 -73
-67 -73 -24 0 -21 33 6 61 31 33 52 37 61 12z m-4555 -62 c31 -28 32 -31 17
-46 -16 -16 -19 -16 -48 6 -29 21 -39 47 -24 62 11 12 22 8 55 -22z m4308
-162 c-37 -32 -63 -34 -68 -7 -2 10 11 26 35 42 34 23 39 24 53 10 13 -14 12
-18 -20 -45z m-4080 -17 c20 -17 30 -33 26 -40 -12 -19 -41 -14 -70 13 -23 21
-26 28 -16 40 17 20 21 19 60 -13z m3860 -96 c0 -2 3 -11 6 -19 7 -18 -60 -62
-81 -53 -25 9 -17 33 18 55 29 19 57 27 57 17z m-3619 -57 c49 -35 33 -72 -20
-44 -35 18 -45 31 -37 50 7 20 23 19 57 -6z m3374 -108 c0 -19 -61 -55 -80
-47 -24 9 -17 34 13 50 32 19 67 17 67 -3z m-3120 -28 c35 -17 47 -47 23 -56
-18 -6 -88 31 -88 47 0 30 16 32 65 9z m2853 -95 c-4 -28 -72 -58 -90 -40 -20
20 28 60 75 61 13 1 18 -5 15 -21z m-2583 -22 c35 -15 47 -42 22 -52 -19 -7
-87 24 -87 39 0 30 16 33 65 13z m2312 -72 c3 -8 1 -20 -4 -25 -16 -16 -69
-27 -84 -18 -28 17 15 54 69 58 7 1 15 -6 19 -15z m-2032 -20 c28 -7 39 -29
21 -43 -14 -12 -81 3 -91 20 -10 14 16 41 33 34 7 -3 24 -8 37 -11z m1752 -60
c8 -22 -8 -34 -52 -37 -31 -1 -40 2 -43 16 -6 31 83 52 95 21z m-1444 -23 c20
-20 -11 -39 -50 -31 -49 11 -63 27 -40 45 19 14 70 6 90 -14z m1155 -24 c18
-21 -2 -38 -49 -40 -38 -2 -44 1 -44 18 0 14 9 22 30 26 47 10 52 10 63 -4z
m-866 -20 c13 -22 -13 -38 -51 -31 -47 8 -58 19 -41 39 10 12 23 15 49 10 20
-4 39 -12 43 -18z m289 -19 c12 -19 -10 -38 -46 -38 -41 0 -63 23 -44 46 15
18 77 13 90 -8z m286 11 c22 -22 2 -39 -42 -39 -48 0 -64 13 -45 35 15 18 71
20 87 4z"/>
<path d="M5120 7445 c-740 -83 -1396 -399 -1920 -925 -538 -538 -858 -1237
-919 -2005 -13 -153 0 -490 24 -665 66 -474 235 -923 494 -1312 164 -246 270
-372 486 -576 284 -267 564 -451 925 -607 672 -289 1449 -332 2165 -118 792
237 1470 786 1874 1519 133 240 258 570 315 824 56 257 70 386 70 660 0 140
-6 305 -12 365 -70 625 -300 1185 -691 1675 -103 129 -352 377 -486 484 -490
390 -1083 630 -1695 685 -153 14 -487 12 -630 -4z m306 -306 c15 -16 16 -23 6
-37 -34 -47 -42 -83 -42 -199 0 -92 4 -126 18 -153 33 -67 116 -76 153 -16 16
27 19 51 19 171 0 123 -3 144 -20 170 -39 59 -18 85 70 85 28 0 60 -5 71 -10
24 -13 25 -47 2 -73 -15 -16 -19 -46 -24 -181 -7 -200 -20 -232 -112 -271 -42
-17 -162 -20 -204 -4 -35 13 -82 56 -96 89 -6 14 -13 98 -16 186 -5 135 -9
165 -23 181 -10 11 -18 29 -18 41 0 32 27 41 116 42 69 0 84 -3 100 -21z
m-417 -26 c19 -16 19 -22 8 -61 -10 -40 -8 -57 25 -190 31 -121 42 -151 68
-177 53 -55 34 -81 -79 -111 -98 -25 -125 -5 -102 76 8 26 -5 109 -19 124 -5
5 -40 1 -80 -9 l-72 -18 6 -39 c8 -51 31 -95 56 -108 22 -12 27 -52 8 -68 -21
-16 -118 -42 -160 -42 -47 0 -55 16 -39 70 10 34 7 56 -26 187 -32 129 -41
152 -70 182 -18 19 -33 40 -33 47 0 20 38 41 105 58 72 19 86 20 109 3 16 -12
17 -18 5 -55 -10 -33 -10 -53 0 -97 7 -30 17 -55 23 -55 19 0 133 31 141 39
14 13 -22 106 -53 136 -38 36 -38 60 0 80 24 12 118 40 151 44 4 1 16 -7 28
-16z m1021 -6 l65 -22 1 -55 c2 -54 26 -166 39 -178 10 -9 101 94 123 138 15
30 22 35 57 38 55 4 110 -25 110 -58 0 -20 -7 -26 -45 -37 -37 -10 -61 -29
-137 -110 -76 -80 -94 -106 -103 -145 -9 -36 -9 -55 1 -81 18 -51 8 -67 -43
-67 -47 0 -133 23 -154 41 -21 18 -17 49 10 70 14 11 32 41 41 68 16 48 15 53
-11 163 -30 126 -41 152 -78 187 -29 27 -32 41 -14 59 18 18 65 14 138 -11z
m-1411 -1063 c120 -59 286 -241 340 -372 15 -36 22 -38 82 -17 101 36 292 67
409 68 121 0 287 -25 410 -63 36 -11 68 -20 72 -20 4 0 17 19 29 43 77 152
224 307 348 366 68 32 84 36 156 36 72 -1 87 -4 144 -35 150 -81 262 -286 311
-573 25 -150 43 -406 38 -536 l-5 -104 55 -126 c66 -154 122 -321 154 -461 19
-86 23 -133 23 -260 0 -152 -1 -157 -37 -262 -76 -221 -175 -375 -354 -555
l-121 -121 -7 -68 c-18 -172 -117 -302 -303 -395 -131 -66 -318 -118 -487
-135 l-66 -7 -47 -70 c-84 -123 -189 -174 -335 -164 -52 3 -94 13 -125 28 -58
28 -130 98 -163 158 l-25 45 -125 18 c-466 66 -739 269 -740 548 0 43 -3 47
-60 95 -231 193 -426 531 -460 796 -25 201 51 528 196 847 34 74 34 75 34 226
0 497 85 832 255 1001 89 89 156 117 265 110 49 -3 84 -14 139 -41z m-1411
-2326 c2 -18 -3 -30 -15 -36 -10 -5 -100 -29 -200 -53 -151 -35 -184 -40 -197
-30 -19 16 -21 47 -4 58 24 15 343 91 378 90 30 -2 35 -6 38 -29z m4737 -101
c164 -125 179 -144 151 -182 -13 -18 -24 -19 -163 -16 l-148 3 111 -86 c62
-47 115 -93 118 -102 9 -23 -2 -52 -22 -63 -23 -12 -413 8 -430 22 -7 6 -12
22 -10 36 l3 26 153 -3 c83 -2 152 0 152 5 -1 4 -48 44 -107 88 -117 89 -136
114 -108 145 16 18 27 19 166 13 82 -3 149 -4 149 -2 0 3 -52 43 -115 89 -108
80 -137 113 -120 139 18 30 64 7 220 -112z m-4506 -495 c48 -52 81 -131 81
-194 0 -69 -9 -95 -52 -143 -81 -93 -228 -99 -316 -15 -39 37 -93 129 -90 153
2 15 47 50 163 124 88 57 166 103 173 103 8 0 26 -13 41 -28z m4102 -255 c54
-29 105 -101 115 -163 19 -127 -92 -254 -222 -254 -121 0 -224 106 -224 230 0
76 66 169 140 199 48 19 143 13 191 -12z m-3644 -322 c127 -64 159 -233 64
-338 -133 -147 -368 -71 -388 126 -5 48 -2 64 21 112 57 116 185 158 303 100z
m3049 -103 c12 -8 212 -295 220 -316 3 -8 1 -24 -6 -35 -17 -32 -59 -26 -220
33 -80 29 -147 51 -149 49 -3 -2 28 -51 68 -109 80 -116 87 -147 36 -152 -28
-2 -36 6 -137 154 -105 151 -121 187 -96 212 20 20 50 14 204 -42 82 -29 150
-50 152 -46 2 4 -25 47 -59 96 -78 111 -86 129 -69 149 13 16 38 19 56 7z
m-2563 -236 c8 -8 27 -79 41 -158 15 -79 31 -154 36 -168 9 -27 2 -38 89 153
28 62 33 68 57 65 54 -6 52 -24 -25 -194 -40 -87 -79 -169 -87 -181 -16 -26
-65 -32 -82 -10 -5 6 -24 88 -42 180 -18 93 -36 165 -40 160 -3 -4 -29 -57
-56 -116 -27 -60 -57 -113 -66 -118 -22 -12 -58 5 -58 27 0 16 146 341 162
362 14 16 53 15 71 -2z m2030 -97 c8 -13 -1 -40 -38 -118 -34 -71 -45 -105
-38 -112 6 -6 53 -31 104 -57 79 -40 94 -51 94 -71 0 -49 -26 -48 -135 3 -81
38 -104 45 -116 36 -17 -15 -18 -49 -3 -101 9 -30 9 -42 -1 -54 -16 -19 -44
-19 -59 -1 -6 7 -40 94 -75 192 -67 189 -70 214 -22 214 30 0 38 -10 65 -90
13 -36 26 -69 30 -73 4 -4 36 51 70 123 58 123 63 131 88 128 14 -2 31 -10 36
-19z m-1460 -110 c14 -23 -18 -105 -48 -125 -46 -30 -92 31 -50 66 8 7 15 18
15 24 0 6 7 22 16 34 18 26 51 26 67 1z m513 -55 c39 -6 58 -26 49 -53 -5 -16
-16 -21 -63 -23 l-57 -3 -10 -167 c-6 -98 -15 -172 -21 -178 -7 -7 -22 -10
-35 -8 l-24 3 0 172 c0 94 -3 174 -7 178 -3 3 -28 9 -55 13 -41 6 -49 11 -51
32 -2 13 3 29 11 35 14 10 195 10 263 -1z"/>
<path d="M4374 5966 c-83 -38 -163 -143 -213 -281 -63 -175 -93 -390 -92 -680
l0 -190 -54 -125 c-129 -300 -180 -497 -180 -695 0 -125 2 -134 38 -240 84
-241 240 -458 449 -623 37 -29 57 -51 53 -60 -27 -71 -7 -171 51 -246 88 -115
272 -191 623 -255 l145 -27 23 -44 c70 -131 194 -181 334 -135 61 21 125 80
152 141 l19 41 86 13 c142 21 366 77 456 113 150 61 223 122 268 223 16 37 19
62 16 121 l-3 75 80 68 c202 172 342 369 421 595 40 115 46 297 14 452 -27
135 -95 339 -162 490 l-51 116 2 161 c7 511 -105 888 -291 982 -45 23 -61 26
-114 21 -41 -3 -79 -14 -112 -32 -62 -33 -161 -130 -214 -208 -39 -58 -101
-178 -111 -218 -4 -16 -10 -20 -24 -14 -54 24 -194 67 -270 82 -64 13 -135 17
-258 17 -189 -1 -308 -20 -456 -74 l-80 -29 -16 37 c-77 188 -210 355 -328
412 -58 28 -158 36 -201 16z m152 -127 c56 -27 152 -130 204 -219 45 -77 72
-146 90 -234 6 -31 15 -56 19 -56 5 0 51 20 102 44 326 155 746 149 1071 -15
32 -16 62 -29 67 -29 5 0 12 19 16 43 35 226 232 487 369 487 33 0 45 -6 78
-41 121 -127 178 -369 184 -790 l4 -256 46 -98 c53 -114 68 -178 85 -364 l12
-133 37 -35 c158 -142 -19 -605 -334 -872 -262 -222 -563 -341 -968 -381 -120
-12 -367 0 -494 25 -348 66 -621 202 -833 414 -199 198 -331 457 -331 646 0
90 10 118 59 170 38 40 39 41 45 145 12 174 32 264 86 385 l50 110 0 208 c0
428 59 692 183 822 51 52 84 58 153 24z m1011 -3098 c94 -43 127 -168 67 -253
-36 -51 -86 -78 -144 -78 -121 1 -210 128 -165 236 42 102 140 141 242 95z"/>
<path d="M4649 4402 c-131 -68 -158 -240 -54 -338 121 -112 313 -67 364 85 15
45 14 67 -4 127 -38 131 -184 190 -306 126z m213 -71 c32 -33 39 -46 36 -73
-2 -28 -7 -34 -31 -36 -37 -4 -91 31 -111 72 -19 41 -20 48 -4 64 25 25 69 14
110 -27z"/>
<path d="M6092 4415 c-59 -26 -92 -56 -117 -106 -96 -188 106 -380 296 -281
59 31 93 73 110 136 43 158 -139 316 -289 251z m196 -90 c26 -28 32 -43 30
-68 -2 -26 -8 -33 -30 -35 -52 -6 -128 58 -128 109 0 52 77 49 128 -6z"/>
<path d="M5269 3988 c-49 -30 -39 -104 23 -173 99 -114 276 -97 359 33 34 54
38 103 9 132 -24 24 -7 22 -204 24 -135 1 -163 -2 -187 -16z m331 -44 c20 -20
-127 -36 -216 -23 -72 11 -83 21 -39 32 37 10 244 2 255 -9z"/>
<path d="M5425 3622 c-6 -4 -23 -26 -38 -50 -35 -54 -80 -82 -133 -82 -45 0
-76 23 -106 78 -22 41 -69 45 -94 7 -41 -62 62 -182 172 -200 l42 -6 4 -65 c3
-54 8 -68 33 -95 55 -57 130 -79 206 -59 90 24 139 83 139 169 l0 49 43 7 c73
12 142 67 171 136 20 48 4 83 -41 87 -28 3 -35 -2 -57 -37 -32 -50 -62 -71
-104 -71 -49 0 -87 24 -132 85 -32 43 -46 55 -68 55 -15 0 -32 -4 -37 -8z"/>
<path d="M3268 2980 c-60 -39 -108 -74 -108 -79 0 -5 15 -29 33 -53 45 -58 94
-75 154 -53 93 36 124 132 70 214 -15 23 -31 41 -35 41 -4 0 -55 -32 -114 -70z"/>
<path d="M7346 2780 c-111 -98 -27 -273 117 -246 110 21 148 166 63 244 -31
28 -43 32 -91 32 -46 0 -59 -4 -89 -30z"/>
<path d="M3719 2467 c-90 -60 -88 -181 4 -237 91 -56 210 12 210 120 0 111
-123 178 -214 117z"/>
</g>
</svg>
